<?xml version="1.0" encoding="UTF-8" standalone="no"?>
<!DOCTYPE svg PUBLIC "-//W3C//DTD SVG 1.1//EN" "http://www.w3.org/Graphics/SVG/1.1/DTD/svg11.dtd">
<svg width="100%" height="100%" viewBox="0 0 788 809" version="1.1" xmlns="http://www.w3.org/2000/svg" xmlns:xlink="http://www.w3.org/1999/xlink" xml:space="preserve" xmlns:serif="http://www.serif.com/" style="fill-rule:evenodd;clip-rule:evenodd;stroke-linecap:round;stroke-linejoin:round;stroke-miterlimit:1.5;"><g id="design-5" serif:id="design 5"><path id="left-bracket" serif:id="left bracket" d="M725.815,189.497c-3.084,-0.514 -5.782,-1.799 -8.095,-3.854c-2.312,-2.056 -4.625,-4.24 -6.938,-6.553c-2.313,-2.313 -4.882,-4.754 -7.709,-7.323c-2.826,-2.57 -6.038,-4.626 -9.636,-6.167c-9.765,-3.084 -17.602,-5.14 -23.512,-6.168c-5.91,-1.027 -13.748,-3.083 -23.512,-6.167l-30.065,0c-7.195,2.056 -11.949,2.955 -14.262,2.698c-2.312,-0.257 -6.809,-1.927 -13.49,-5.01c-2.056,0 -4.626,-1.028 -7.709,-3.084c-3.084,-2.056 -6.167,-3.084 -9.251,-3.084c-4.111,-0.513 -6.424,-0.77 -6.938,-0.77c-0.514,0 -1.156,0.128 -1.927,0.385c-0.771,0.257 -2.441,0.514 -5.011,0.771c-2.57,0.257 -7.966,0.128 -16.189,-0.386l-77.089,0c-7.709,0 -15.803,-2.569 -24.283,-7.708c-8.48,-5.14 -15.546,-7.709 -21.2,-7.709c-6.167,0 -14.261,2.184 -24.283,6.552c-10.021,4.369 -20.428,6.553 -31.221,6.553c-26.21,-0.514 -45.611,-0.9 -58.202,-1.157c-12.591,-0.257 -20.686,-0.385 -24.283,-0.385c-3.598,0 -4.24,-0.128 -1.927,-0.385c2.312,-0.257 5.267,-0.386 8.865,-0.386c3.597,0 6.424,0.129 8.48,0.386c2.055,0.257 1.027,0.642 -3.084,1.156c-4.111,0.514 -12.72,1.156 -25.825,1.927c-13.105,0.771 -33.277,1.67 -60.515,2.698l-47.024,0c-2.57,0 -6.167,0.129 -10.793,0.386c-4.625,0.257 -9.25,0.514 -13.876,0.771c-4.625,0.257 -8.994,0.514 -13.105,0.77c-4.111,0.257 -7.195,0.386 -9.251,0.386c-8.736,0 -17.859,4.24 -27.366,12.72c-9.508,8.479 -18.245,17.345 -26.211,26.595c-7.966,9.251 -14.904,16.832 -20.814,22.742c-5.91,5.91 -9.636,6.552 -11.178,1.927c-10.792,-7.195 -16.188,-16.06 -16.188,-26.596c0,-10.535 3.083,-20.171 9.25,-28.908c3.598,-12.848 6.424,-24.026 8.48,-33.534c2.056,-9.508 4.368,-18.116 6.938,-25.825c2.57,-7.709 6.039,-14.904 10.407,-21.585c4.369,-6.681 10.921,-13.876 19.658,-21.585c7.195,-4.111 12.848,-8.094 16.96,-11.949c4.111,-3.854 9.764,-4.24 16.959,-1.156c6.167,2.056 10.664,3.726 13.491,5.011c2.826,1.285 4.882,2.955 6.167,5.011c1.285,2.055 1.927,4.496 1.927,7.323c0,2.827 0,7.066 0,12.72c2.056,5.139 4.625,8.608 7.709,10.407c3.084,1.798 6.938,2.698 11.563,2.698c4.626,0 10.022,-0.386 16.189,-1.156c6.167,-0.771 13.619,-1.157 22.356,-1.157c11.82,0 22.741,-0.514 32.763,-1.542c10.022,-1.027 24.026,-2.055 42.014,-3.083c5.139,0.514 8.608,0.771 10.407,0.771c1.798,0 3.212,0 4.24,0c1.027,0 2.441,0.128 4.239,0.385c1.799,0.257 5.525,0.643 11.178,1.157c7.709,0 12.72,-0.129 15.033,-0.386c2.312,-0.257 4.497,-0.514 6.552,-0.771c2.056,-0.257 5.011,-0.514 8.866,-0.771c3.854,-0.257 10.921,-0.385 21.199,-0.385c7.709,0 16.06,-1.542 25.054,-4.626c8.994,-3.083 13.491,-7.965 13.491,-14.646c0,-4.112 -0.643,-7.324 -1.927,-9.637c-1.285,-2.312 -1.928,-5.524 -1.928,-9.636c0,-2.569 0.129,-6.038 0.386,-10.407c0.257,-4.368 0.899,-8.608 1.927,-12.72c1.028,-4.111 2.57,-7.708 4.625,-10.792c2.056,-3.084 4.626,-4.625 7.709,-4.625c6.167,0 11.692,2.055 16.574,6.167c4.883,4.111 9.637,8.865 14.262,14.261c4.625,5.397 9.251,10.921 13.876,16.574c4.625,5.654 9.765,9.765 15.418,12.335c11.306,7.709 19.529,13.49 24.668,17.345c5.14,3.854 9.765,6.809 13.876,8.865c4.112,2.056 9.251,3.212 15.418,3.469c6.167,0.257 15.932,0.386 29.294,0.386c6.167,0 10.022,0.128 11.564,0.385c1.541,0.257 2.698,0.514 3.469,0.771c0.77,0.257 1.798,0.514 3.083,0.771c1.285,0.257 4.497,0.385 9.636,0.385c8.737,2.056 17.988,3.341 27.752,3.855c9.765,0.514 20.558,1.284 32.378,2.312c6.681,0 14.518,-1.156 23.512,-3.469c8.994,-2.312 14.005,-6.809 15.032,-13.49c1.542,-2.57 2.699,-4.626 3.469,-6.167c0.771,-1.542 1.414,-2.827 1.928,-3.855c0.514,-1.028 0.899,-2.441 1.156,-4.24c0.257,-1.799 0.899,-4.24 1.927,-7.323c3.598,-5.653 8.095,-10.022 13.491,-13.105c5.396,-3.084 10.921,-2.827 16.574,0.77c9.765,2.57 16.446,6.039 20.043,10.407c3.598,4.369 6.424,9.123 8.48,14.262c2.056,5.139 4.24,10.536 6.553,16.189c2.312,5.653 7.066,11.306 14.261,16.959c4.626,8.223 9.765,16.832 15.418,25.825c5.653,8.994 10.921,18.116 15.803,27.367c4.883,9.251 8.609,18.501 11.178,27.752c2.57,9.251 2.827,18.501 0.771,27.752c-2.056,4.626 -5.525,7.067 -10.407,7.324c-4.882,0.257 -10.15,-0.771 -15.803,-3.084c-5.653,-2.313 -11.564,-5.396 -17.731,-9.251c-6.167,-3.854 -11.563,-7.066 -16.188,-9.636Z" style="fill-rule:nonzero;"/><path id="right-bracket" serif:id="right bracket" d="M718.224,618.294c5.14,-2.569 10.793,-5.781 16.96,-9.636c6.167,-3.854 12.206,-6.938 18.116,-9.251c5.91,-2.312 11.178,-3.469 15.803,-3.469c4.626,0 8.223,2.313 10.793,6.939c2.055,9.25 1.927,18.501 -0.386,27.752c-2.312,9.25 -5.781,18.501 -10.407,27.752c-4.625,9.25 -9.893,18.373 -15.803,27.366c-5.91,8.994 -11.178,17.859 -15.803,26.596c-7.709,5.139 -12.72,10.664 -15.033,16.574c-2.312,5.911 -4.368,11.435 -6.167,16.575c-1.799,5.139 -4.24,9.893 -7.323,14.261c-3.084,4.368 -9.251,7.837 -18.502,10.407c-7.709,3.084 -14.39,3.084 -20.043,0c-5.653,-3.083 -10.535,-6.681 -14.647,-10.792c-1.028,-3.598 -1.67,-6.296 -1.927,-8.095c-0.257,-1.799 -0.643,-3.34 -1.156,-4.625c-0.514,-1.285 -0.9,-2.698 -1.157,-4.24c-0.257,-1.542 -0.899,-3.854 -1.927,-6.938c-2.57,-6.167 -7.966,-10.536 -16.189,-13.105c-8.223,-2.57 -14.904,-3.855 -20.043,-3.855c-13.362,1.028 -24.925,1.928 -34.69,2.698c-9.765,0.771 -18.245,2.699 -25.44,5.782l-68.609,0c-13.362,0 -21.456,0.129 -24.283,0.386c-2.827,0.257 -4.24,1.284 -4.24,3.083c0,1.799 -0.642,4.626 -1.927,8.48c-1.285,3.854 -7.581,9.379 -18.887,16.574c-4.111,3.598 -7.324,8.351 -9.636,14.262c-2.313,5.91 -4.626,11.82 -6.938,17.73c-2.313,5.91 -5.14,10.921 -8.48,15.033c-3.341,4.111 -7.837,6.167 -13.491,6.167c-3.083,0 -6.938,-1.028 -11.563,-3.084c-4.625,-2.056 -8.865,-4.754 -12.72,-8.094c-3.854,-3.341 -7.195,-6.938 -10.021,-10.793c-2.827,-3.854 -4.24,-7.323 -4.24,-10.407c0,-3.083 1.028,-7.58 3.083,-13.49c2.056,-5.911 3.084,-10.664 3.084,-14.262c0,-6.681 -4.497,-11.563 -13.491,-14.647c-8.993,-3.083 -17.345,-4.625 -25.054,-4.625c-10.278,0 -17.345,-0.129 -21.199,-0.386c-3.855,-0.257 -6.81,-0.514 -8.866,-0.771c-2.055,-0.256 -4.239,-0.513 -6.552,-0.77c-2.313,-0.257 -7.324,-0.386 -15.033,-0.386c-5.653,0.514 -9.379,0.9 -11.177,1.156c-1.799,0.257 -3.341,0.643 -4.626,1.157c-1.285,0.514 -2.826,0.899 -4.625,1.156c-1.799,0.257 -5.525,0.643 -11.178,1.156c-18.501,-1.027 -32.763,-2.055 -42.785,-3.083c-10.021,-1.028 -20.942,-1.542 -32.763,-1.542c-16.959,0 -28.651,1.285 -35.075,3.855c-6.424,2.569 -11.692,4.882 -15.803,6.938c-4.112,6.167 -6.681,10.792 -7.709,13.876c-1.028,3.083 -2.056,5.396 -3.084,6.938c-1.028,1.542 -2.57,2.955 -4.625,4.24c-2.056,1.284 -5.653,2.955 -10.793,5.01c-4.111,1.542 -7.709,2.185 -10.792,1.928c-3.084,-0.257 -5.782,-1.028 -8.095,-2.313c-2.312,-1.285 -4.625,-3.084 -6.938,-5.396c-2.312,-2.313 -5.01,-4.497 -8.094,-6.553c-8.223,-15.418 -14.518,-27.11 -18.887,-35.075c-4.368,-7.966 -8.094,-14.904 -11.178,-20.815c-3.083,-5.91 -5.781,-12.077 -8.094,-18.501c-2.313,-6.424 -5.268,-16.06 -8.865,-28.908c-6.681,-8.737 -9.637,-18.373 -8.866,-28.909c0.771,-10.535 6.553,-19.401 17.345,-26.596c1.028,-4.625 4.369,-3.983 10.022,1.928c5.653,5.91 12.463,13.49 20.429,22.741c7.966,9.251 16.574,18.116 25.825,26.596c9.25,8.48 18.244,12.719 26.981,12.719c2.055,0 5.268,0.129 9.636,0.386c4.368,0.257 8.994,0.514 13.876,0.771c4.882,0.257 9.508,0.514 13.876,0.771c4.368,0.257 7.58,0.385 9.636,0.385l47.025,0c15.931,0.514 29.679,0.386 41.242,-0.385c11.564,-0.771 21.971,-1.285 31.221,-1.542c9.251,-0.257 17.859,0 25.825,0.771c7.966,0.771 16.831,2.698 26.596,5.781c4.625,0 10.536,1.285 17.731,3.855c7.195,2.57 14.518,5.525 21.97,8.865c7.452,3.341 14.519,6.296 21.2,8.865c6.681,2.57 12.077,3.855 16.188,3.855c2.57,0 5.397,-1.285 8.48,-3.855c3.084,-2.569 6.681,-5.653 10.793,-9.25c4.111,-3.598 9.25,-7.195 15.417,-10.793c6.168,-3.597 13.877,-6.424 23.127,-8.48l42.399,2.313c14.904,-1.028 28.266,-1.028 40.087,0c11.82,1.028 21.328,1.028 28.523,0c3.597,0 6.681,-1.028 9.25,-3.083c2.57,-2.056 5.911,-3.084 10.022,-3.084c5.653,-3.598 9.379,-5.525 11.178,-5.782c1.799,-0.257 6.039,0.9 12.72,3.469l32.377,0c9.765,-2.569 17.602,-4.368 23.512,-5.396c5.911,-1.028 13.748,-2.827 23.513,-5.396c7.195,-4.112 12.591,-9.122 16.188,-15.033c3.598,-5.91 8.223,-9.379 13.876,-10.407Z" style="fill-rule:nonzero;"/><path id="azuki" d="M194.917,487.866c-23.72,122.688 183.522,152.757 285.975,53.534c197.552,-191.321 78.838,-345.439 -9.624,-331.326c-105.348,16.807 -86.001,119.889 -125.046,152.072c-66.651,54.936 -129.896,14.984 -151.305,125.72Z" style="fill:#e63a2a;"/><clipPath id="_clip1"><path d="M194.917,487.866c-23.72,122.688 183.522,152.757 285.975,53.534c197.552,-191.321 78.838,-345.439 -9.624,-331.326c-105.348,16.807 -86.001,119.889 -125.046,152.072c-66.651,54.936 -129.896,14.984 -151.305,125.72Z"/></clipPath><g clip-path="url(#_clip1)"><circle cx="344.78" cy="356.728" r="61.22" style="fill:#fff;stroke:#34150c;stroke-width:27.72px;"/></g><path d="M194.917,487.866c-23.72,122.688 183.522,152.757 285.975,53.534c197.552,-191.321 78.838,-345.439 -9.624,-331.326c-105.348,16.807 -86.001,119.889 -125.046,152.072c-66.651,54.936 -129.896,14.984 -151.305,125.72Z" style="fill:none;stroke:#34150c;stroke-width:36.09px;"/></g></svg>